<svg width="17" height="16" viewBox="0 0 17 16" fill="none" xmlns="http://www.w3.org/2000/svg">
<path d="M9.58398 12.6663L7.65525 7.16494C6.75964 4.61032 6.31183 3.33301 5.58398 3.33301C4.85614 3.33301 4.40833 4.61032 3.51271 7.16494L1.58398 12.6663M3.25065 7.99967H7.91732" stroke="#2C407C" stroke-width="1.5" stroke-linecap="round" stroke-linejoin="round"/>
<path d="M14.8961 9.2928V12.2928M14.8961 9.2928C14.9276 8.74407 14.9288 8.32607 14.8629 7.98487C14.7076 7.1806 13.8672 6.69593 13.054 6.59733C12.2757 6.50298 11.651 6.70333 11.019 7.6242M14.8961 9.2928H13.0004C12.7091 9.2928 12.4154 9.30687 12.1348 9.38487C10.4197 9.86167 10.5454 12.2669 12.2655 12.5633C12.4566 12.5963 12.6517 12.6104 12.8451 12.6017C13.2969 12.5816 13.7137 12.3633 14.0714 12.0867C14.4903 11.7627 14.8961 11.3103 14.8961 10.6261V9.2928Z" stroke="#2C407C" stroke-width="1.5" stroke-linecap="round" stroke-linejoin="round"/>
</svg>
