<svg width="17" height="16" viewBox="0 0 17 16" fill="none" xmlns="http://www.w3.org/2000/svg">
<path d="M9.49935 8.66667L11.8327 6M9.83268 10C9.83268 10.7364 9.23575 11.3333 8.49935 11.3333C7.76295 11.3333 7.16602 10.7364 7.16602 10C7.16602 9.2636 7.76295 8.66667 8.49935 8.66667C9.23575 8.66667 9.83268 9.2636 9.83268 10Z" stroke="#2C407C" stroke-width="1.5" stroke-linecap="round"/>
<path d="M4.5 8C4.5 5.79086 6.29086 4 8.5 4C9.2286 4 9.91167 4.19479 10.5 4.53513" stroke="#2C407C" stroke-width="1.5" stroke-linecap="round"/>
<path d="M2.16602 8.00035C2.16602 5.01477 2.16602 3.52199 3.09351 2.59449C4.02101 1.66699 5.51379 1.66699 8.49938 1.66699C11.4849 1.66699 12.9777 1.66699 13.9052 2.59449C14.8327 3.52199 14.8327 5.01477 14.8327 8.00035C14.8327 10.9859 14.8327 12.4787 13.9052 13.4062C12.9777 14.3337 11.4849 14.3337 8.49938 14.3337C5.51379 14.3337 4.02101 14.3337 3.09351 13.4062C2.16602 12.4787 2.16602 10.9859 2.16602 8.00035Z" stroke="#2C407C" stroke-width="1.5"/>
</svg>
